PathFileType	4	(X/Y/Z)	/home/abdul/Desktop/myosuite/custom_workspace/IK/output/S19_12_3.trc
DataRate	CameraRate	NumFrames	NumMarkers	Units	OrigDataRate	OrigDataStartFrame	OrigNumFrames
200.0	200.0	96	3	mm	200.0	927	1483
Frame#	Time	V_Shoulder			V_Elbow			V_Wrist		
		X1	Y1	Z1	X2	Y2	Z2	X3	Y3	Z3

927	4.63	-104.09675223943457	663.3406025998971	315.7556825101676				-91.91712671023294	224.41966269452362	70.78143636376674
928	4.635	-104.09513395049284	663.196025435683	315.7203991156708				-91.73679477249337	224.12108025857808	70.57578340855163
929	4.64	-104.09312759922948	663.0514529696746	315.6852489256643				-91.5565005901224	223.824183489978	70.37273567819538
930	4.645	-104.09072301780334	662.906905680453	315.6502497529502				-91.37629879359602	223.52897863588876	70.17227210628174
931	4.65	-104.0879102274194	662.7624045425392	315.61541937145904				-91.19624432708093	223.23547254041588	69.9743686678757
932	4.655	-104.08467945808265	662.6179709753131	315.58077547704966				-91.0163923260833	222.9436726716329	69.77899828997408
933	4.66	-104.0810211680232	662.4736267923698	315.5463356489542				-90.83679799448332	222.653587146228	69.58613077631915
934	4.665	-104.07692606274873	662.3293941514265	315.51211731197526				-90.65751648112536	222.36522475144812	69.39573274731464
935	4.67	-104.07238511368159	662.1852955048756	315.4781376995353				-90.47860275614804	222.07859496404404	69.20776759570103
936	4.675	-104.06738957633847	662.0413535510846	315.4444138176763				-90.30011148725166	221.7937079659456	69.02219545855854
937	4.68	-104.06193100801283	661.8975911865354	315.4109624101031				-90.12209691611427	221.51057465642364	68.83897320611446
938	4.685	-104.05600128491989	661.7540314588931	315.37779992435816				-89.9446127351798	221.22920666052585	68.65805444773514
939	4.69	-104.04959261876714	661.6106975210911	315.3449424792142				-89.76771196505342	220.94961633360361	68.47938955538412
940	4.695	-104.04269757271375	661.4676125865095	315.3124058333613				-89.59144683275122	220.67181676177935	68.30292570472675
941	4.7	-104.03530907668419	661.324799885329	315.2802053554654				-89.41586865106103	220.3958217582363	68.12860693395885
942	4.705	-104.02742044200329	661.1822826221293	315.2483559956634				-89.24102769928109	220.12164585524647	67.95637422033346
943	4.71	-104.01902537532146	661.0400839347996	315.2168722585612				-89.06697310561131	219.8493042918859	67.7861655742561
944	4.715	-104.01011799180064	660.8982268548261	315.1857681777896				-88.89375273147975	219.5788129974193	67.61791615071611
945	4.72	-104.0006928275339	660.7567342690145	315.15505729217097				-88.72141305809279	219.31018857037168	67.45155837772008
946	4.725	-103.99074485117308	660.6156288827002	315.12475262354025				-88.54999907550291	219.0434482533349	67.28702210129381
947	4.73	-103.98026947474108	660.4749331844973	315.0948666562612				-88.3795541744918	218.77860990359167	67.12423474652286
948	4.735	-103.96926256360778	660.3346694126286	315.0654113184681				-88.21012004156918	218.51569195966846	66.96312149400728
949	4.74	-103.95772044561011	660.1948595228787	315.0363979650628				-88.0417365573895	218.25471340396052	66.80360547101799
950	4.745	-103.9456399192997	660.0555251582033	315.00783736248417				-87.8744416988884	217.99569372159993	66.64560795655544
951	4.75	-103.93301826130322	659.9166876200278	314.9797396752656				-87.70827144544035	217.73865285576375	66.48904859943282
952	4.755	-103.91985323278321	659.7783678412585	314.9521144543876				-87.54325968933566	217.48361115964587	66.33384564843001
953	4.76	-103.90614308498931	659.6405863610283	314.92497062742706				-87.3794381508722	217.23058934533762	66.17991619349634
954	4.765	-103.8918865638919	659.5033633011959	314.8983164904984				-87.21683629835098	216.97960842988405	66.02717641691731
955	4.77	-103.87708291389278	659.3667183446081	314.8721597019755				-87.05548127325916	216.73068967880116	65.8755418533045
956	4.775	-103.86173188060945	659.2306707151344	314.8465072779782				-86.89539782091612	216.48385454735518	65.7249276572184
957	4.78	-103.8458337127326	659.0952391594784	314.8213655896021				-86.73660822684911	216.23912461991927	65.57524887719211
958	4.785	-103.82938916295711	658.9604419307647	314.79674036186185				-86.57913225915452	215.99652154773366	65.42642073488817
959	4.79	-103.81239948799104	658.8262967738964	314.77263667431674				-86.42298711708959	215.75606698540514	65.27835890809375
960	4.795	-103.7948664476474	658.692820912676	314.7490589633397				-86.26818738612626	215.51778252648623	65.13097981623902
961	4.8	-103.77679230302738	658.5600310386768	314.726011025987				-86.11474499968507	215.28168963847975	64.98420090711025
962	4.805	-103.75817981380465	658.4279433018482	314.7034960254213				-85.9626692077521	215.04780959761342	64.83794094342454
963	4.81	-103.73903223462305	658.2965733028338	314.68151649783516				-85.81196655256522	214.8161634237292	64.6921202879348
964	4.815	-103.71935331062178	658.1659360869818	314.66007436082117				-85.6626408515395	214.586771815627	64.54666118574269
965	4.82	-103.69914727210391	658.0360461400179	314.639170923127				-85.51469318758284	214.35965508719667	64.40148804251432
966	4.825	-103.67841882836665	657.9069173853512	314.61880689573377				-85.36812190693419	214.13483310466216	64.25652769731623
967	4.83	-103.65717316071294	657.7785631829789	314.59898240419085				-85.22292262463681	213.91232522525212	64.11170968882008
968	4.835	-103.63541591466613	657.6509963299549	314.5796970021385				-85.07908823773799	213.6921502375966	63.96696651366044
969	4.84	-103.6131531914109	657.5242290623772	314.5609496859459				-84.93660894628617	213.47432630413567	63.822233875773435
970	4.845	-103.59039153848558	657.3982730588581	314.5427389103916				-84.7954722821735	213.25887090580756	63.67745092559261
971	4.85	-103.56713793975207	657.2731394454239	314.5250626053106				-84.65566314585034	213.04580078926548	63.532560488032445
972	4.855	-103.54339980467137	657.1488388018015	314.50791819313014				-84.51716385091453	212.83513191685313	63.387509278249524
973	4.86	-103.5191849569138	657.0253811690374	314.491302607217				-84.3799541765559	212.6268794195445	63.24224810423517
974	4.865	-103.49450162233471	656.9027760583954	314.4752123109561				-84.24401142781217	212.42105755303413	63.09673205536164
975	4.87	-103.46935841634706	656.7810324614784	314.4596433174816				-84.1093105035695	212.21767965713684	62.95092067607603
976	4.875	-103.44376433072382	656.6601588615152	314.4445912099788				-83.97582397221709	212.01675811863362	62.804778124011236
977	4.88	-103.41772871986382	656.5401632457503	314.4300511624799				-83.8435221548413	211.81830433767288	62.65827331186139
978	4.885	-103.39126128655532	656.4210531188759	314.41601796107125				-83.71237321582164	211.62232869781252	62.511380032449324
979	4.89	-103.36437206727351	656.3028355174415	314.4024860254351				-83.58234326066736	211.4288405397599	62.36407706649536
980	4.895	-103.33707141704683	656.1855170251744	314.38944943064774				-83.45339644091077	211.2378481388422	62.21634827268001
981	4.9	-103.30936999392956	656.0691037891423	314.37690192915665				-83.32549506585046	211.0493586862129	62.068182659676204
982	4.905	-103.28127874311731	655.9536015366915	314.3648369728633				-83.19859972091614	210.86337827377315	61.91957443991051
983	4.91	-103.25280888074319	655.8390155930853	314.35324773523683				-83.07266939240472	210.67991188276324	61.770523064895414
984	4.915	-103.22397187739212	655.7253508997749	314.3421271333874				-82.94766159831713	210.49896337595166	61.62103324205661
985	4.92	-103.19477944137164	655.6126120332261	314.3314678500321				-82.82353252500504	210.3205354933275	61.47111493305927
986	4.925	-103.16524350177673	655.5008032242298	314.32126235528386				-82.70023716931787	210.1446298511758	61.32078333371501
987	4.93	-103.13537619138735	655.3899283776182	314.3115029282023				-82.57772948592246	209.97124694439464	61.17005883562669
988	4.935	-103.10518982943607	655.2799910923144	314.3021816780436				-82.45596253945001	209.80038615188963	61.01896696979976
989	4.94	-103.07469690428404	655.1709946816346	314.29329056515314				-82.33488866110972	209.63204574486267	60.86753833251791
990	4.945	-103.04391005604282	655.0629421937687	314.2848214214432				-82.214459609393	209.4662228977907	60.715808493844456
991	4.95	-103.01284205917939	654.95583643236	314.2767659704067				-82.09462673447885	209.30291370187416	60.56381788917183
992	4.955	-102.98150580514118	654.8496799771078	314.269115846617				-81.97534114593822	209.1421131807179	60.41161169429644
993	4.96	-102.94991428503785	654.7444752043133	314.2618626146695				-81.85655388332393	208.9838153079925	60.25923968454702
994	4.965	-102.91808057241553	654.6402243072924	314.254997787523				-81.7382160892231	208.8280130268115	60.10675607854015
995	4.97	-102.88601780615858	654.5369293165794	314.2485128442035				-81.62027918433967	208.6746982705481	59.95421936717691
996	4.975	-102.85373917355373	654.4345921198407	314.2423992468349				-81.50269504416768	208.52386198480667	59.801692128529496
997	4.98	-102.82125789355005	654.3332144814277	314.23664845696754				-81.38541617680974	208.37549415025492	59.649240829296645
998	4.985	-102.78858720024773	654.2327980614883	314.2312519511758				-81.26839590148964	208.22958380601966	59.49693561353073
999	4.99	-102.75574032664757	654.1333444345655	314.22620123590224				-81.15158852730492	208.08611907334253	59.34485007935877
1000	4.995	-102.72273048869233	654.0348551076098	314.22148786152815				-81.03494953176197	207.9450871791936	59.1930610444336
1001	5.0	-102.68957086963003	653.9373315373326	314.21710343565445				-80.91843573863517	207.80647447953908	59.04164830086085
1002	5.005	-102.6562746047275	653.8407751468307	314.2130396355789				-80.80200549469052	207.67026648196355	58.89069436035179
1003	5.01	-102.622854766363	653.7451873414128	314.2092882199623				-80.68561884481495	207.5364478673507	58.74028419035254
1004	5.015	-102.58932434952396	653.6505695235636	314.20584103967644				-80.56923770509378	207.40500251033535	58.590504941896775
1005	5.02	-102.55569625773516	653.5569231069782	314.20269004783125				-80.4528260333808	207.27591349824732	58.44144566992143
1006	5.025	-102.52198328944223	653.464249529606	314.1998273089817				-80.3363499969086	207.14916314827977	58.2931970467752
1007	5.03	-102.48819812487314	653.3725502656463	314.19724500751823				-80.21977813648999	207.02473302262803	58.145851069636244
1008	5.035	-102.45435331339938	653.2818268364343	314.19493545524637				-80.10308152686605	206.90260394136078	57.99950076254076
1009	5.04	-102.4204612614174	653.1920808201695	314.1928910981644				-79.98623393276021	206.78275599280238	57.85423987370703
1010	5.045	-102.38653422076978	653.1033138604299	314.19110452245263				-79.86921196020387	206.66516854122574	57.71016256882172
1011	5.05	-102.35258427772327	653.0155276734287	314.18956845968586				-79.75199520270384	206.5498202316761	57.567363120936676
1012	5.055	-102.31862334252082	652.928724053969	314.1882757912878				-79.63456638182844	206.43668899177038	57.425935597605324
1013	5.06	-102.28466313952244	652.8429048800552	314.18721955224436				-79.51691148179465	206.32575203034045	57.28597354586977
1014	5.065	-102.2507151979483	652.7580721161252	314.1863929340975				-79.39901987764576	206.216985832818	57.14756967569175
1015	5.07	-102.21679084323699	652.6742278148718	314.18578928724213				-79.28088445661524	206.1103661532855	57.01081554240417
1016	5.075	-102.18290118902932	652.5913741176262	314.1854021225494				-79.16250173227971	206.0058680031476	56.87580122874568
1017	5.08	-102.14905712978707	652.5095132532784	314.1852251123433				-79.04387195111104	205.90346563640998	56.74261502702774
1018	5.085	-102.11526933405493	652.4286475357185	314.1852520907566				-78.92499919104438	205.80313253158397	56.611343121973576
1019	5.09	-102.08154823837204	652.348779359782	314.1854770534935				-78.80589145168732	205.70484137027	56.48206927476096
1020	5.095	-102.04790404183778	652.2699111956925	314.18589415703065				-78.68656073580237	205.60856401250516	56.35487450879634
1021	5.1	-102.01434670133612	652.1920455819959	314.1864977172834				-78.56702312170384	205.5142714689979	56.2298367977461
1022	5.105	-101.98088592742009	652.1151851169893	314.18728220777007				-78.44729882621768	205.42193387040658	56.10703075635315
